<mxfile host="app.diagrams.net" modified="2023-08-16T10:53:43.989Z" agent="Mozilla/5.0 (Windows NT 10.0; Win64; x64) AppleWebKit/537.36 (KHTML, like Gecko) Chrome/109.0.0.0 Safari/537.36" etag="_DgQFzWvX8qVE-_mobV4" version="21.6.8" type="github">
  <diagram name="Page-1" id="c37626ed-c26b-45fb-9056-f9ebc6bb27b6">
    <mxGraphModel dx="1347" dy="630" grid="1" gridSize="10" guides="1" tooltips="1" connect="1" arrows="1" fold="1" page="1" pageScale="1" pageWidth="1100" pageHeight="850" background="none" math="0" shadow="0">
      <root>
        <mxCell id="0" />
        <mxCell id="1" parent="0" />
        <mxCell id="JZWH_YhC1cOxBc0anlZv-1" value="" style="shape=mxgraph.cisco.routers.router;sketch=0;html=1;pointerEvents=1;dashed=0;fillColor=#036897;strokeColor=#ffffff;strokeWidth=2;verticalLabelPosition=bottom;verticalAlign=top;align=center;outlineConnect=0;" vertex="1" parent="1">
          <mxGeometry x="460" y="267" width="78" height="53" as="geometry" />
        </mxCell>
        <mxCell id="JZWH_YhC1cOxBc0anlZv-2" value="" style="shape=mxgraph.cisco.switches.workgroup_switch;sketch=0;html=1;pointerEvents=1;dashed=0;fillColor=#036897;strokeColor=#ffffff;strokeWidth=2;verticalLabelPosition=bottom;verticalAlign=top;align=center;outlineConnect=0;" vertex="1" parent="1">
          <mxGeometry x="448.5" y="476.5" width="101" height="50" as="geometry" />
        </mxCell>
        <mxCell id="JZWH_YhC1cOxBc0anlZv-3" value="" style="shape=mxgraph.cisco.routers.wireless_router;sketch=0;html=1;pointerEvents=1;dashed=0;fillColor=#036897;strokeColor=#ffffff;strokeWidth=2;verticalLabelPosition=bottom;verticalAlign=top;align=center;outlineConnect=0;" vertex="1" parent="1">
          <mxGeometry x="740" y="243" width="78" height="77" as="geometry" />
        </mxCell>
        <mxCell id="JZWH_YhC1cOxBc0anlZv-4" value="" style="shape=mxgraph.cisco.routers.wireless_router;sketch=0;html=1;pointerEvents=1;dashed=0;fillColor=#036897;strokeColor=#ffffff;strokeWidth=2;verticalLabelPosition=bottom;verticalAlign=top;align=center;outlineConnect=0;" vertex="1" parent="1">
          <mxGeometry x="740" y="449.5" width="78" height="77" as="geometry" />
        </mxCell>
        <mxCell id="JZWH_YhC1cOxBc0anlZv-5" value="" style="shape=mxgraph.cisco.storage.cloud;sketch=0;html=1;pointerEvents=1;dashed=0;fillColor=#036897;strokeColor=#ffffff;strokeWidth=2;verticalLabelPosition=bottom;verticalAlign=top;align=center;outlineConnect=0;" vertex="1" parent="1">
          <mxGeometry x="220" y="340" width="186" height="106" as="geometry" />
        </mxCell>
        <mxCell id="JZWH_YhC1cOxBc0anlZv-6" value="" style="shape=link;html=1;rounded=0;exitX=0.89;exitY=0.2;exitDx=0;exitDy=0;exitPerimeter=0;entryX=0.12;entryY=0.9;entryDx=0;entryDy=0;entryPerimeter=0;" edge="1" parent="1" source="JZWH_YhC1cOxBc0anlZv-5" target="JZWH_YhC1cOxBc0anlZv-1">
          <mxGeometry width="100" relative="1" as="geometry">
            <mxPoint x="450" y="370" as="sourcePoint" />
            <mxPoint x="550" y="370" as="targetPoint" />
          </mxGeometry>
        </mxCell>
        <mxCell id="JZWH_YhC1cOxBc0anlZv-7" value="" style="shape=link;html=1;rounded=0;exitX=0.5;exitY=0;exitDx=0;exitDy=0;exitPerimeter=0;entryX=0.5;entryY=1;entryDx=0;entryDy=0;entryPerimeter=0;" edge="1" parent="1" source="JZWH_YhC1cOxBc0anlZv-2" target="JZWH_YhC1cOxBc0anlZv-1">
          <mxGeometry width="100" relative="1" as="geometry">
            <mxPoint x="390" y="420" as="sourcePoint" />
            <mxPoint x="560" y="370" as="targetPoint" />
          </mxGeometry>
        </mxCell>
        <mxCell id="JZWH_YhC1cOxBc0anlZv-8" value="" style="shape=link;html=1;rounded=0;entryX=0.12;entryY=0.93;entryDx=0;entryDy=0;entryPerimeter=0;exitX=1;exitY=0;exitDx=0;exitDy=0;exitPerimeter=0;" edge="1" parent="1" source="JZWH_YhC1cOxBc0anlZv-2" target="JZWH_YhC1cOxBc0anlZv-3">
          <mxGeometry width="100" relative="1" as="geometry">
            <mxPoint x="390" y="420" as="sourcePoint" />
            <mxPoint x="490" y="420" as="targetPoint" />
          </mxGeometry>
        </mxCell>
        <mxCell id="JZWH_YhC1cOxBc0anlZv-9" value="" style="shape=link;html=1;rounded=0;exitX=0.87;exitY=0.74;exitDx=0;exitDy=0;exitPerimeter=0;entryX=0;entryY=0.5;entryDx=0;entryDy=0;entryPerimeter=0;" edge="1" parent="1" source="JZWH_YhC1cOxBc0anlZv-2" target="JZWH_YhC1cOxBc0anlZv-4">
          <mxGeometry width="100" relative="1" as="geometry">
            <mxPoint x="560" y="640" as="sourcePoint" />
            <mxPoint x="690" y="600" as="targetPoint" />
          </mxGeometry>
        </mxCell>
        <mxCell id="JZWH_YhC1cOxBc0anlZv-10" value="Контроллер&lt;br&gt;Air (KN-1611) EAEU" style="text;html=1;strokeColor=none;fillColor=none;align=center;verticalAlign=middle;whiteSpace=wrap;rounded=0;" vertex="1" parent="1">
          <mxGeometry x="818" y="290" width="122" height="21.5" as="geometry" />
        </mxCell>
      </root>
    </mxGraphModel>
  </diagram>
</mxfile>
